<?xml version="1.0" encoding="UTF-8" standalone="no"?>
<!DOCTYPE svg PUBLIC "-//W3C//DTD SVG 1.1//EN" "http://www.w3.org/Graphics/SVG/1.1/DTD/svg11.dtd">
<svg version="1.1" xmlns="http://www.w3.org/2000/svg" xmlns:xlink="http://www.w3.org/1999/xlink" preserveAspectRatio="xMidYMid meet" viewBox="220.80952380952402 137.25394403366823 239.85714285714283 234.54761904761898" width="235.86" height="230.55"><defs><path d="M357.5 156.11L374.76 173.97L340.24 173.97L305.71 173.97L322.97 156.11L340.24 138.25L357.5 156.11Z" id="a7LEiynbc"></path><path d="M457.67 264.04C457.67 275.54 452.33 284.87 445.76 284.87C439.19 284.87 433.86 275.54 433.86 264.04C433.86 252.54 439.19 243.21 445.76 243.21C452.33 243.21 457.67 252.54 457.67 264.04Z" id="f1xK5261MX"></path><path d="M245.62 264.63C245.62 276.46 240.28 286.06 233.71 286.06C227.14 286.06 221.81 276.46 221.81 264.63C221.81 252.81 227.14 243.21 233.71 243.21C240.28 243.21 245.62 252.81 245.62 264.63Z" id="h1pufTBLYk"></path><path d="M437.86 264.63C437.86 322.13 394.12 368.8 340.24 368.8C286.36 368.8 242.62 322.13 242.62 264.63C242.62 207.14 286.36 160.47 340.24 160.47C394.12 160.47 437.86 207.14 437.86 264.63Z" id="b5HyLFHWZe"></path></defs>
<g>
  <g>
    <!-- Nasion -->
    <use xlink:href="#a7LEiynbc" opacity="1" fill="#ffffff" fill-opacity="1"></use>
    <g>
      <use xlink:href="#a7LEiynbc" opacity="1" fill-opacity="0" stroke="#000000" stroke-width="1" stroke-opacity="1"></use>
    </g>
  </g>
  <g>
    <!-- Right ear -->
    <use xlink:href="#f1xK5261MX" opacity="1" fill="#ffffff" fill-opacity="1"></use>
    <g>
      <use xlink:href="#f1xK5261MX" opacity="1" fill-opacity="0" stroke="#000000" stroke-width="1" stroke-opacity="1"></use>
    </g>
  </g>
  <g>
    <!-- Left ear -->
    <use xlink:href="#h1pufTBLYk" opacity="1" fill="#000000" fill-opacity="1"></use>
    <g>
      <use xlink:href="#h1pufTBLYk" opacity="1" fill-opacity="0" stroke="#000000" stroke-width="1" stroke-opacity="1"></use>
    </g>
  </g>
  <g>
    <!-- Head -->
    <use xlink:href="#b5HyLFHWZe" opacity="1" fill="#ffffff" fill-opacity="1"></use>
    <g>
      <use xlink:href="#b5HyLFHWZe" opacity="1" fill-opacity="0" stroke="#000000" stroke-width="1" stroke-opacity="1"></use>
    </g>
  </g>
</g>
</svg>
